<?xml version="1.0" encoding="utf-8"?>
<!-- Generator: Adobe Illustrator 17.0.0, SVG Export Plug-In . SVG Version: 6.00 Build 0)  -->
<!DOCTYPE svg PUBLIC "-//W3C//DTD SVG 1.1//EN" "http://www.w3.org/Graphics/SVG/1.1/DTD/svg11.dtd">
<svg version="1.1" id="Laag_1" xmlns="http://www.w3.org/2000/svg" xmlns:xlink="http://www.w3.org/1999/xlink" x="0px" y="0px"
	 width="337.326px" height="377.011px" viewBox="0 0 337.326 377.011" enable-background="new 0 0 337.326 377.011"
	 xml:space="preserve">
<g transform="translate(-390 -260)">
	<g>
		<path fill="#FFFFFF" d="M671.9,317.844c-7.213,0-13.937,2.23-19.512,6.028c-4.774-13.571-17.595-23.449-32.752-23.449
			c-7.213,0-13.937,2.23-19.512,6.028c-4.774-13.571-17.596-23.449-32.752-23.449c-10.436,0-19.739,4.756-26.132,12.073
			c-6.393-7.335-15.696-12.073-26.132-12.073c-19.164,0-34.842,15.679-34.842,34.842v22.108c-3.954,2.283-7.526,5.366-10.453,9.251
			l-52.264,69.686c-11.289,15.052-8.589,36.359,6.115,48.117l70.643,56.514l20.801,20.801v69.686h17.422V537.11l-26.603-26.603
			L434.534,453.4c-7.387-5.905-8.728-16.48-3.048-24.059l48.779-65.034v40.645v17.422l0,0l-10.767,14.372l28.188,22.561v-36.935
			V404.95v-87.106c0-9.599,7.822-17.422,17.422-17.422c9.599,0,17.422,7.822,17.422,17.422v91.462l17.422-4.356v-87.106
			c0-9.599,7.822-17.422,17.422-17.422c9.599,0,17.422,7.822,17.422,17.422v17.422v69.686h17.422v-69.686
			c0-9.599,7.822-17.422,17.422-17.422s17.422,7.822,17.422,17.422v17.422v52.264h17.422v-52.264
			c0-9.599,7.822-17.422,17.422-17.422s17.422,7.822,17.422,17.422v52.264v17.422v84.285l-17.422,52.264v55.086h17.422v-52.264
			l17.422-52.264v-87.107v-17.422v-52.264C706.742,333.523,691.063,317.844,671.9,317.844z"/>
	</g>
</g>
</svg>
