<?xml version="1.0" encoding="utf-8"?>
<!-- Generator: Adobe Illustrator 17.0.0, SVG Export Plug-In . SVG Version: 6.00 Build 0)  -->
<!DOCTYPE svg PUBLIC "-//W3C//DTD SVG 1.1//EN" "http://www.w3.org/Graphics/SVG/1.1/DTD/svg11.dtd">
<svg version="1.1" id="Laag_1" xmlns="http://www.w3.org/2000/svg" xmlns:xlink="http://www.w3.org/1999/xlink" x="0px" y="0px"
	 width="497.595px" height="428.959px" viewBox="0 0 497.595 428.959" enable-background="new 0 0 497.595 428.959"
	 xml:space="preserve">
<g>
	<g>
		<g>
			<g>
				<path fill="#FFFFFF" d="M307.105,123.342c0,25.716-15.299,56.552-34.229,72.327c3.631,13.93,22.68,19.049,61.314,29.585
					c2.5,0.714,5.06,1.429,7.739,2.143c48.813,13.334,60.54,47.444,60.421,69.648H95.067c-0.06-12.144,3.453-27.913,14.644-41.848
					c9.286-11.489,23.752-21.787,45.777-27.794c1.845-0.536,3.691-1.012,5.417-1.488c27.859-7.679,45.837-12.382,55.54-19.287
					c3.869-2.798,6.429-5.953,7.739-9.763h2.322c-0.655-0.536-1.25-1.012-1.845-1.607c-18.096-16.376-31.907-48.164-31.907-73.88
					c0-36.372,29.764-65.838,57.921-65.838S307.105,86.97,307.105,123.342z"/>
				<path fill="#FFFFFF" d="M497.595,23.037v305.141c0,12.739-10.298,23.037-23.037,23.037H323.654v38.866
					c0,2.566-0.417,4.941-1.131,7.203h68.814c8.751,0,15.834,7.084,15.834,15.834s-7.084,15.84-15.834,15.84h-285.02
					c-8.81,0-15.834-7.084-15.834-15.834c0-4.34,1.786-8.328,4.643-11.251c2.798-2.798,6.786-4.59,11.191-4.59h68.755
					c-0.714-2.262-1.131-4.637-1.131-7.203v-38.866H23.038c-12.739,0-23.037-10.298-23.037-23.037V23.037
					C0.001,10.298,10.299,0,23.038,0h451.52C487.297,0,497.595,10.298,497.595,23.037z M469.557,240.969
					c0-1.607-0.06-3.334-0.298-5.119V28.752H28.336v212.217v75.72H469.26v-75.72L469.557,240.969L469.557,240.969z"/>
				<path fill="#FFFFFF" d="M469.26,235.85c0.238,1.786,0.298,3.512,0.298,5.119h-0.298V235.85z"/>
				<path fill="#FFFFFF" d="M322.166,199.359c26.252-7.143,38.931-10.06,41.253-18.93c-11.31-9.405-20.418-27.8-20.418-43.158
					c0-21.728,16.846-40.479,33.693-40.479c16.787,0,34.586,17.62,34.586,39.288c0,15.358-8.274,34.348-19.108,44.11
					c-0.298,0.357-0.655,0.655-1.072,0.952h1.369c2.857,8.274,15.537,11.191,41.015,18.216
					c25.597,7.084,34.169,23.573,35.776,36.491v5.119h-71.374c-7.322-9.108-18.811-17.263-36.253-22.025
					c-9.227-2.56-17.204-4.703-23.93-6.667c-11.31-3.274-19.287-6.191-24.406-9.822
					C315.975,201.264,318.951,200.252,322.166,199.359z"/>
				<path fill="#FFFFFF" d="M226.504,196.859h-2.322c0.179-0.536,0.357-1.012,0.476-1.607
					C225.254,195.847,225.85,196.323,226.504,196.859z"/>
				<path fill="#FFFFFF" d="M118.282,179.715h-1.726c0.119-0.357,0.238-0.774,0.357-1.191
					C117.33,178.941,117.806,179.357,118.282,179.715z"/>
				<path fill="#FFFFFF" d="M118.282,179.715c-0.476-0.357-0.952-0.774-1.369-1.191c-0.119,0.417-0.238,0.833-0.357,1.191H118.282z
					 M135.248,180.429c2.322,8.87,15.001,11.787,41.193,18.93c3.215,0.893,6.191,1.905,8.87,3.095
					c-5.596,3.988-14.703,7.084-27.859,10.834c-5.953,1.726-12.739,3.512-20.418,5.655c-17.501,4.762-28.99,12.918-36.312,22.025
					H29.05c-0.06-13.275,6.965-33.574,36.074-41.61c25.537-7.024,38.157-9.941,41.015-18.216h1.369
					c-0.357-0.298-0.714-0.595-1.072-0.952c-10.834-9.763-19.049-28.752-19.049-44.11c0-21.668,17.739-39.288,34.586-39.288
					c16.787,0,33.693,18.751,33.693,40.479C155.666,152.629,146.499,171.024,135.248,180.429z"/>
			</g>
		</g>
	</g>
</g>
</svg>
