<?xml version="1.0" encoding="utf-8"?>
<!-- Generator: Adobe Illustrator 17.0.0, SVG Export Plug-In . SVG Version: 6.00 Build 0)  -->
<!DOCTYPE svg PUBLIC "-//W3C//DTD SVG 1.1//EN" "http://www.w3.org/Graphics/SVG/1.1/DTD/svg11.dtd">
<svg version="1.1" id="Laag_1" xmlns="http://www.w3.org/2000/svg" xmlns:xlink="http://www.w3.org/1999/xlink" x="0px" y="0px"
	 width="567.421px" height="568.135px" viewBox="13.93 62.467 567.421 568.135"
	 enable-background="new 13.93 62.467 567.421 568.135" xml:space="preserve">
<title>Artboard 75</title>
<path fill="#1585E0" d="M406.398,455.531l59.528-59.528v204.836c0,16.438-13.326,29.764-29.764,29.764H43.694
	c-16.438,0-29.764-13.326-29.764-29.764V208.371c0-16.438,13.326-29.764,29.764-29.764h202.931l-59.528,59.528H73.458v332.94h332.94
	V455.531z M581.351,185.809c0.042,6.569-2.527,12.886-7.143,17.561L329.785,447.733c-3.03,3.059-6.805,5.275-10.953,6.429
	L182.751,492.26c-2.114,0.583-4.296,0.883-6.489,0.893l0,0c-13.676-0.057-24.717-11.19-24.66-24.867
	c0.009-2.136,0.294-4.263,0.849-6.326l36.253-136.379c1.113-4.156,3.288-7.951,6.31-11.013L439.376,69.789
	c4.631-4.667,10.927-7.301,17.501-7.322h0.655C525.689,62.565,580.991,117.653,581.351,185.809z M299.009,408.563
	c-4.596-33.266-30.92-59.321-64.231-63.576l-14.227,53.159c11.291,4.938,20.348,13.889,25.418,25.121L299.009,408.563z"/>
</svg>
