<?xml version="1.0" encoding="UTF-8"?>
<svg width="18px" height="18px" viewBox="0 0 18 18" version="1.1" xmlns="http://www.w3.org/2000/svg" xmlns:xlink="http://www.w3.org/1999/xlink">
    <!-- Generator: Sketch 45.2 (43514) - http://www.bohemiancoding.com/sketch -->
    <title>thumbs down</title>
    <desc>Created with Sketch.</desc>
    <defs></defs>
    <g id="Symbols" stroke="none" stroke-width="1" fill="none" fill-rule="evenodd">
        <g id="linked" transform="translate(-122.000000, -7.000000)">
            <g id="Group-5" transform="translate(10.691706, 0.691680)">
                <g id="thumbs-down" transform="translate(120.798905, 14.728385) scale(1, -1) translate(-120.798905, -14.728385) translate(112.298905, 6.228385)">
                    <path d="M16.3463455,9.47615008 C16.3463455,9.19626522 16.2613983,8.92754868 16.0999647,8.69876734 C15.8992728,8.41380597 15.947669,8.02291478 16.2119867,7.79548718 C16.5125171,7.53726209 16.6847805,7.16295416 16.6847805,6.76867863 C16.6847805,6.02209338 16.077628,5.4149429 15.3310403,5.4149429 L11.9466897,5.4149429 C11.9466897,5.4149429 12.6235599,4.06120718 12.6235599,2.70747145 C12.6235599,1.69216966 12.2851248,0 10.9313846,0 C10.2545145,0 10.0108412,0.31508199 10.0006882,0.676867863 C9.91607942,3.72277325 8.5623392,4.73807504 8.5623392,4.73807504 L3.82424843,8.12241436 L3.82424843,14.891093 C3.82424843,14.891093 6.53172887,16.2448287 9.23920931,16.2448287 L9.91607942,16.2448287 C13.2181902,16.2448287 15.3310403,15.3148123 15.3310403,14.2142251 C15.3310403,14.1235248 15.3181798,14.037901 15.293474,13.9590459 C15.2098805,13.6954059 15.2951662,13.4073986 15.5087187,13.2317514 C15.8258323,12.9708189 16.0079104,12.5887269 16.0079104,12.1836215 C16.0079104,11.9037367 15.9229632,11.6350201 15.7615297,11.4062388 C15.5608377,11.1212774 15.6092339,10.7303862 15.8735517,10.5029586 C16.174082,10.2447335 16.3463455,9.87042561 16.3463455,9.47615008 L16.3463455,9.47615008 Z M-6.76867872e-05,16.2448287 L2.70741275,16.2448287 L2.70741275,7.44554649 L-6.76867872e-05,7.44554649 L-6.76867872e-05,16.2448287 Z" id="Fill-1" fill="#ED1E7A"></path>
                    <path d="M16.3464131,9.47615008 C16.3464131,9.19626522 16.2614659,8.92754868 16.1000324,8.69876734 C15.8993404,8.41380597 15.9477367,8.02291478 16.2120544,7.79548718 C16.5125848,7.53726209 16.6848482,7.16295416 16.6848482,6.76867863 C16.6848482,6.02209338 16.0776957,5.4149429 15.331108,5.4149429 L11.9467574,5.4149429 C11.9467574,5.4149429 12.6236275,4.06120718 12.6236275,2.70747145 C12.6236275,1.69216966 12.2851925,0 10.9314523,0 C10.2545822,0 10.0109089,0.31508199 10.0007559,0.676867863 C9.9161471,3.72277325 8.56240689,4.73807504 8.56240689,4.73807504 L3.82431612,8.12241436 L3.82431612,14.891093 C3.82431612,14.891093 6.53179656,16.2448287 9.239277,16.2448287 L9.9161471,16.2448287 C13.2182579,16.2448287 15.331108,15.3148123 15.331108,14.2142251 C15.331108,14.1235248 15.3182474,14.037901 15.2935417,13.9590459 C15.2099482,13.6954059 15.2952339,13.4073986 15.5087864,13.2317514 C15.8259,12.9708189 16.0079781,12.5887269 16.0079781,12.1836215 C16.0079781,11.9037367 15.9230309,11.6350201 15.7615974,11.4062388 C15.5609054,11.1212774 15.6093016,10.7303862 15.8736194,10.5029586 C16.1741497,10.2447335 16.3464131,9.87042561 16.3464131,9.47615008 Z M0,16.2448287 L2.70748044,16.2448287 L2.70748044,7.44554649 L0,7.44554649 L0,16.2448287 Z" id="Stroke-3" stroke="#ED1E7A" stroke-width="0.5"></path>
                </g>
            </g>
        </g>
    </g>
</svg>