<?xml version="1.0" encoding="UTF-8"?>
<svg width="44px" height="42px" viewBox="0 0 44 42" version="1.1" xmlns="http://www.w3.org/2000/svg" xmlns:xlink="http://www.w3.org/1999/xlink">
    <!-- Generator: Sketch 45.2 (43514) - http://www.bohemiancoding.com/sketch -->
    <title>Shape</title>
    <desc>Created with Sketch.</desc>
    <defs></defs>
    <g id="Page-1" stroke="none" stroke-width="1" fill="none" fill-rule="evenodd">
        <g id="Quest-page-Copy" transform="translate(-1272.000000, -1503.000000)" fill="#757575">
            <g id="chat-field" transform="translate(-32.000000, 1442.000000)">
                <g id="Group" transform="translate(64.000000, 40.000000)">
                    <path d="M1240,48 L1240,63 L1255.71429,63 L1255.71429,57 L1246.28571,57 L1246.28571,48 L1240,48 Z M1240,36 L1246.28571,36 L1246.28571,27 L1255.71429,27 L1255.71429,21 L1240,21 L1240,36 L1240,36 Z M1277.71429,57 L1268.28571,57 L1268.28571,63 L1284,63 L1284,48 L1277.71429,48 L1277.71429,57 L1277.71429,57 Z M1268.28571,21 L1268.28571,27 L1277.71429,27 L1277.71429,36 L1284,36 L1284,21 L1268.28571,21 L1268.28571,21 Z" id="Shape"></path>
                </g>
            </g>
        </g>
    </g>
</svg>