<?xml version="1.0" encoding="UTF-8"?>
<svg width="6px" height="20px" viewBox="0 0 6 20" version="1.1" xmlns="http://www.w3.org/2000/svg" xmlns:xlink="http://www.w3.org/1999/xlink">
    <!-- Generator: Sketch 45.2 (43514) - http://www.bohemiancoding.com/sketch -->
    <title>Top right</title>
    <desc>Created with Sketch.</desc>
    <defs>
        <polygon id="path-1" points="9.62299905 4.61676692 19.2455054 4.61676692 19.2455054 -4.4408921e-16 9.62299905 -4.4408921e-16 0.000492684938 -4.4408921e-16 0.000492684938 4.61676692"></polygon>
    </defs>
    <g id="Page-1" stroke="none" stroke-width="1" fill="none" fill-rule="evenodd">
        <g id="Quest-page-Copy" transform="translate(-1185.000000, -144.000000)">
            <g id="main-Quest-Box" transform="translate(228.000000, 117.000000)">
                <g id="Newsfeed-item">
                    <g id="Top" transform="translate(21.536776, 27.151713)">
                        <g id="Top-right" transform="translate(935.543036, 0.000000)">
                            <g id="Page-1" transform="translate(2.964040, 10.533740) rotate(90.000000) translate(-2.964040, -10.533740) translate(-7.035960, 8.033740)">
                                <mask id="mask-2" fill="white">
                                    <use xlink:href="#path-1"></use>
                                </mask>
                                <g id="Clip-2"></g>
                                <path d="M9.62262953,-4.4408921e-16 C8.34657554,-4.4408921e-16 7.31316888,1.03292465 7.31316888,2.30838346 C7.31316888,3.58384227 8.34657554,4.61676692 9.62262953,4.61676692 C10.8986835,4.61676692 11.9320902,3.58384227 11.9320902,2.30838346 C11.9320902,1.03292465 10.8986835,-4.4408921e-16 9.62262953,-4.4408921e-16 M16.9365374,-4.4408921e-16 C15.6604835,-4.4408921e-16 14.6270768,1.03292465 14.6270768,2.30838346 C14.6270768,3.58384227 15.6604835,4.61676692 16.9365374,4.61676692 C18.2113597,4.61676692 19.2459981,3.58384227 19.2459981,2.30838346 C19.2459981,1.03292465 18.2113597,-4.4408921e-16 16.9365374,-4.4408921e-16 M2.30995333,-4.4408921e-16 C1.03389934,-4.4408921e-16 0.000492684938,1.03292465 0.000492684938,2.30838346 C0.000492684938,3.58384227 1.03389934,4.61676692 2.30995333,4.61676692 C3.58477561,4.61676692 4.61941398,3.58384227 4.61941398,2.30838346 C4.61941398,1.03292465 3.58477561,-4.4408921e-16 2.30995333,-4.4408921e-16" id="Fill-1" fill-opacity="0.38" fill="#000000" mask="url(#mask-2)"></path>
                            </g>
                        </g>
                    </g>
                </g>
            </g>
        </g>
    </g>
</svg>