<?xml version="1.0" encoding="utf-8"?>
<!-- Generator: Adobe Illustrator 21.1.0, SVG Export Plug-In . SVG Version: 6.00 Build 0)  -->
<svg version="1.1" id="Layer_1" xmlns="http://www.w3.org/2000/svg" xmlns:xlink="http://www.w3.org/1999/xlink" x="0px" y="0px"
	 viewBox="0 0 15 15" style="enable-background:new 0 0 15 15;" xml:space="preserve">
<style type="text/css">
	.st0{enable-background:new    ;}
	.st1{fill:#2A80E6;}
</style>
<title>Page 1</title>
<desc>Created with Sketch.</desc>
<g id="Page-1_1_">
	<g id="Quest-page-Copy" transform="translate(-1040.000000, -482.000000)">
		<g id="main-Quest-Box" transform="translate(228.000000, 117.000000)">
			<g id="Newsfeed-item">
				<g id="Data-_x2F_-Action" transform="translate(12.306729, 247.672104)">
					<g id="Group-9">
						<g id="Page-1" transform="translate(799.000000, 117.000000)">
							<g class="st0">
								<path class="st1" d="M13.3,12.3v1.4l-0.6,0.2c-0.9,0.2-1.8,0.4-2.5,0.4c-1.5,0-2.8-0.4-3.7-1.2c-0.9-0.8-1.5-2-1.8-3.6H3.1
									l0.4-1h1.1c0-0.3,0-0.5,0-0.6c0-0.2,0-0.6,0-1H3.1l0.4-1h1.3c0.3-1.5,1-2.6,1.9-3.3c0.9-0.7,2.2-1.1,3.7-1.1
									c0.8,0,1.7,0.1,2.8,0.4v1.5c-1-0.4-1.9-0.6-2.8-0.6c-1,0-1.8,0.3-2.5,0.8C7.4,4,6.8,4.8,6.5,5.8h5.7l-0.4,1H6.3
									c0,0.4,0,0.8,0,1c0,0.1,0,0.4,0,0.6h4.9l-0.4,1H6.4c0.3,1.1,0.8,2,1.4,2.6c0.7,0.6,1.5,0.9,2.5,0.9
									C11.2,12.9,12.2,12.7,13.3,12.3z"/>
							</g>
						</g>
					</g>
				</g>
			</g>
		</g>
	</g>
</g>
</svg>
