<?xml version="1.0" encoding="utf-8"?>
<!-- Generator: Adobe Illustrator 21.1.0, SVG Export Plug-In . SVG Version: 6.00 Build 0)  -->
<svg version="1.1" id="Layer_1" xmlns="http://www.w3.org/2000/svg" xmlns:xlink="http://www.w3.org/1999/xlink" x="0px" y="0px"
	 viewBox="0 0 15 15" style="enable-background:new 0 0 15 15;" xml:space="preserve">
<style type="text/css">
	.st0{enable-background:new    ;}
	.st1{fill:#44E63C;}
</style>
<title>P</title>
<desc>Created with Sketch.</desc>
<g id="Page-1">
	<g id="Quest-page-Copy" transform="translate(-1117.000000, -488.000000)">
		<g id="main-Quest-Box" transform="translate(228.000000, 117.000000)">
			<g id="Newsfeed-item">
				<g id="Data-_x2F_-Action" transform="translate(12.306729, 247.672104)">
					<g class="st0">
						<path class="st1" d="M879.5,136.9v-12.2h3.9c1.5,0,2.5,0.1,2.9,0.2c0.7,0.2,1.3,0.6,1.8,1.2c0.5,0.6,0.7,1.4,0.7,2.4
							c0,0.7-0.1,1.4-0.4,1.9c-0.3,0.5-0.6,0.9-1,1.2c-0.4,0.3-0.8,0.5-1.3,0.6c-0.6,0.1-1.4,0.2-2.5,0.2H882v4.6H879.5z M882,126.8
							v3.5h1.3c1,0,1.6-0.1,1.9-0.2c0.3-0.1,0.6-0.3,0.8-0.6c0.2-0.3,0.3-0.6,0.3-0.9c0-0.4-0.1-0.8-0.4-1.1c-0.3-0.3-0.6-0.5-1-0.5
							c-0.3-0.1-0.9-0.1-1.8-0.1H882z"/>
					</g>
				</g>
			</g>
		</g>
	</g>
</g>
</svg>
