<?xml version="1.0" encoding="UTF-8"?>
<svg width="21px" height="18px" viewBox="0 0 21 18" version="1.1" xmlns="http://www.w3.org/2000/svg" xmlns:xlink="http://www.w3.org/1999/xlink">
    <!-- Generator: Sketch 45.2 (43514) - http://www.bohemiancoding.com/sketch -->
    <title>Imported Layers</title>
    <desc>Created with Sketch.</desc>
    <defs></defs>
    <g id="Page-1" stroke="none" stroke-width="1" fill="none" fill-rule="evenodd">
        <g id="Quest-page-Copy" transform="translate(-1140.000000, -1007.000000)" fill="#D5D5D5">
            <g id="main-Quest-Box" transform="translate(228.000000, 117.000000)">
                <g id="Newsfeed-item">
                    <g id="Group-4" transform="translate(19.998435, 876.851550)">
                        <path d="M910.986405,16.2624097 L907.861649,16.2624097 L905.361845,13.8450245 L899.112334,13.8450245 L896.612529,16.2624097 L893.487774,16.2624097 C892.797203,16.2624097 892.237872,16.8032996 892.237872,17.4711023 L892.237872,29.5580284 C892.237872,30.2252268 892.797203,30.766721 893.487774,30.766721 L910.986405,30.766721 C911.676351,30.766721 912.236307,30.2252268 912.236307,29.5580284 L912.236307,17.4711023 C912.236307,16.8032996 911.676351,16.2624097 910.986405,16.2624097 L910.986405,16.2624097 Z M911.349887,29.9092631 L893.12337,29.9092631 L893.12337,17.4683795 L896.798817,17.4683795 L899.602897,14.7037387 L904.87036,14.7037387 L907.674439,17.4683795 L911.349887,17.4683795 L911.349887,29.9092631 L911.349887,29.9092631 Z M902.219321,19.3682323 C900.188122,19.3682323 898.541516,20.9916791 898.541516,22.9943101 C898.541516,24.9964231 900.188122,26.620388 902.219321,26.620388 C904.25052,26.620388 905.897126,24.9964231 905.897126,22.9943101 C905.897126,20.9916791 904.25052,19.3682323 902.219321,19.3682323 L902.219321,19.3682323 Z M902.236628,25.7623019 C900.690179,25.7623019 899.432549,24.5223605 899.432549,22.9976611 C899.432549,21.4729617 900.690179,20.2330203 902.236628,20.2330203 C903.783078,20.2330203 905.040708,21.4729617 905.040708,22.9976611 C905.040708,24.5223605 903.783078,25.7623019 902.236628,25.7623019 L902.236628,25.7623019 Z" id="Imported-Layers"></path>
                    </g>
                </g>
            </g>
        </g>
    </g>
</svg>