<?xml version="1.0" encoding="utf-8"?>
<!-- Generator: Adobe Illustrator 17.0.0, SVG Export Plug-In . SVG Version: 6.00 Build 0)  -->
<!DOCTYPE svg PUBLIC "-//W3C//DTD SVG 1.1//EN" "http://www.w3.org/Graphics/SVG/1.1/DTD/svg11.dtd">
<svg version="1.1" id="Laag_1" xmlns="http://www.w3.org/2000/svg" xmlns:xlink="http://www.w3.org/1999/xlink" x="0px" y="0px"
	 width="541.705px" height="541.705px" viewBox="0 0 541.705 541.705" enable-background="new 0 0 541.705 541.705"
	 xml:space="preserve">
<path fill="#FFFFFF" d="M270.853,0C121.503,0,0.001,121.503,0.001,270.852s121.502,270.852,270.852,270.852
	s270.852-121.503,270.852-270.852S420.203,0,270.853,0z M270.853,500.035c-126.372,0-229.183-102.811-229.183-229.183
	S144.481,41.669,270.853,41.669S500.036,144.48,500.036,270.852S397.225,500.035,270.853,500.035z M291.688,261.982V85.327
	c0-11.507-9.328-20.835-20.835-20.835c-11.507,0-20.835,9.328-20.835,20.835v185.525c0,5.667,2.31,11.09,6.393,15.019
	l102.192,98.227c4.042,3.881,9.245,5.816,14.441,5.816c5.471,0,10.929-2.137,15.019-6.393c7.977-8.298,7.715-21.484-0.583-29.46
	L291.688,261.982z"/>
</svg>
