<?xml version="1.0" encoding="utf-8"?>
<!-- Generator: Adobe Illustrator 17.0.0, SVG Export Plug-In . SVG Version: 6.00 Build 0)  -->
<!DOCTYPE svg PUBLIC "-//W3C//DTD SVG 1.1//EN" "http://www.w3.org/Graphics/SVG/1.1/DTD/svg11.dtd">
<svg version="1.1" id="Laag_1" xmlns="http://www.w3.org/2000/svg" xmlns:xlink="http://www.w3.org/1999/xlink" x="0px" y="0px"
	 width="329.073px" height="454.556px" viewBox="0 0 329.073 454.556" enable-background="new 0 0 329.073 454.556"
	 xml:space="preserve">
<title>54 all</title>
<path fill="#FFFFFF" d="M164.524-0.001C73.719-0.06,0.059,73.503,0,164.308c-0.016,24.283,5.347,48.268,15.704,70.232
	c3.26,6.71,7,13.175,11.191,19.347L158.928,451.58c1.24,1.846,3.312,2.96,5.536,2.976l0,0c2.245,0.004,4.344-1.113,5.596-2.976
	l130.962-196.442c4.857-6.962,9.176-14.286,12.918-21.906c38.005-82.469,1.96-180.132-80.508-218.137
	C211.824,5.135,188.314-0.014,164.524-0.001z M164.524,223.586c-32.876,0-59.528-26.652-59.528-59.528s26.652-59.528,59.528-59.528
	s59.528,26.652,59.528,59.528C224.052,196.935,197.4,223.586,164.524,223.586z"/>
</svg>
