<?xml version="1.0" encoding="utf-8"?>
<!-- Generator: Adobe Illustrator 17.0.0, SVG Export Plug-In . SVG Version: 6.00 Build 0)  -->
<!DOCTYPE svg PUBLIC "-//W3C//DTD SVG 1.1//EN" "http://www.w3.org/Graphics/SVG/1.1/DTD/svg11.dtd">
<svg version="1.1" id="Laag_1" xmlns="http://www.w3.org/2000/svg" xmlns:xlink="http://www.w3.org/1999/xlink" x="0px" y="0px"
	 width="539.455px" height="539.47px" viewBox="0 0 539.455 539.47" enable-background="new 0 0 539.455 539.47"
	 xml:space="preserve">
<g>
	<path fill="#FFFFFF" d="M270.621,542.262C123.159,543.22,1.313,422.453,0.01,274.033C-1.292,126.608,119.076,4.65,267.663,2.817
		c148.02-1.823,271.625,120.693,271.792,269.402C539.622,420.118,418.985,541.304,270.621,542.262z M271.281,512.052
		c134.031-1.125,238.782-108.006,237.973-242.818C508.463,137.5,400.625,32.34,267.022,33.029
		C135.037,33.697,28.788,142.15,30.258,274.684C31.737,407.85,138.673,513.168,271.281,512.052z"/>
	<path fill="#FFFFFF" d="M269.858,69.786C156.616,69.721,67.203,159.46,64.617,267.55
		c-2.716,113.522,89.469,207.288,204.814,207.734c112.973,0.428,205.269-90.352,205.465-202.572
		C475.081,160.594,383.492,69.851,269.858,69.786z M371.744,305.341c-36.879,22.769-74.112,44.99-111.513,66.885
		c-32.294,18.909-55.714,5.218-56.719-32.694c-0.307-11.515-0.084-23.048-0.093-34.573c-0.009-10.845,0-21.691,0-32.545
		c0.019,0,0.046,0,0.065,0c0-23.049-0.605-46.116,0.14-69.146c1.144-35.196,24.927-48.776,55.184-31.196
		c38.061,22.118,75.787,44.832,113.187,68.039C402.606,259.113,402.466,286.375,371.744,305.341z"/>
</g>
</svg>
